G75*
%MOIN*%
%OFA0B0*%
%FSLAX24Y24*%
%IPPOS*%
%LPD*%
%AMOC8*
5,1,8,0,0,1.08239X$1,22.5*
%
%ADD10C,0.0946*%
%ADD11C,0.0820*%
%ADD12R,0.0820X0.0820*%
%ADD13C,0.0640*%
%ADD14C,0.0730*%
%ADD15R,0.0730X0.0730*%
%ADD16C,0.0050*%
%ADD17R,0.0635X0.0635*%
%ADD18R,0.0820X0.0820*%
%ADD19C,0.0680*%
%ADD20C,0.0580*%
D10*
X005105Y010605D03*
X018105Y033105D03*
X031105Y010605D03*
D11*
X029605Y013605D03*
X029605Y014605D03*
X029605Y015605D03*
X029605Y016605D03*
X029605Y017605D03*
X029605Y018605D03*
X029605Y019605D03*
X029605Y020605D03*
X029605Y021605D03*
X029605Y022605D03*
X029605Y023605D03*
X028605Y023605D03*
X027605Y023605D03*
X026605Y023605D03*
X025605Y023605D03*
X024605Y023605D03*
X023605Y023605D03*
X023605Y022605D03*
X023605Y021605D03*
X023605Y020605D03*
X023605Y019605D03*
X023605Y018605D03*
X023605Y017605D03*
X023605Y016605D03*
X023605Y015605D03*
X024605Y016605D03*
X023605Y014605D03*
X023605Y013605D03*
X023605Y012605D03*
X021855Y015855D03*
X022105Y009105D03*
X022105Y007605D03*
X025105Y007605D03*
X025105Y009105D03*
X027903Y006533D03*
X027137Y005891D03*
X026371Y005248D03*
X028605Y016605D03*
X018105Y022355D03*
X014355Y015855D03*
X007105Y016105D03*
X007105Y013105D03*
X009971Y005605D03*
X010837Y005105D03*
X011703Y004605D03*
D12*
G36*
X009665Y006255D02*
X009255Y005545D01*
X008545Y005955D01*
X008955Y006665D01*
X009665Y006255D01*
G37*
G36*
X025655Y005182D02*
X026182Y004555D01*
X025555Y004028D01*
X025028Y004655D01*
X025655Y005182D01*
G37*
D13*
X012605Y012075D02*
X012605Y012635D01*
X011885Y011105D02*
X011325Y011105D01*
X007885Y011105D02*
X007325Y011105D01*
X012605Y016075D02*
X012605Y016635D01*
X007897Y020416D02*
X007412Y020696D01*
X007912Y021562D02*
X008397Y021282D01*
X008897Y022148D02*
X008412Y022428D01*
X008912Y023294D02*
X009397Y023014D01*
X009897Y023880D02*
X009412Y024160D01*
X009912Y025026D02*
X010397Y024746D01*
X010897Y025612D02*
X010412Y025892D01*
X008298Y027112D02*
X007813Y027392D01*
X007313Y026526D02*
X007798Y026246D01*
X007298Y025380D02*
X006813Y025660D01*
X006313Y024794D02*
X006798Y024514D01*
X006298Y023648D02*
X005813Y023928D01*
X005313Y023062D02*
X005798Y022782D01*
X005298Y021916D02*
X004813Y022196D01*
X004313Y021330D02*
X004798Y021050D01*
X004298Y020184D02*
X003813Y020464D01*
X003313Y019598D02*
X003798Y019318D01*
X005912Y018098D02*
X006397Y017818D01*
X006897Y018684D02*
X006412Y018964D01*
X006912Y019830D02*
X007397Y019550D01*
D14*
X017605Y013105D03*
D15*
X018605Y013105D03*
D16*
X010528Y012597D02*
X010520Y012525D01*
X010498Y012456D01*
X010464Y012393D01*
X010417Y012337D01*
X010361Y012292D01*
X010297Y012259D01*
X010227Y012238D01*
X010155Y012232D01*
X010091Y012237D01*
X010028Y012253D01*
X009969Y012279D01*
X009915Y012316D01*
X009869Y012361D01*
X009831Y012413D01*
X009803Y012471D01*
X009786Y012534D01*
X009779Y012598D01*
X009784Y012664D01*
X009800Y012728D01*
X009828Y012788D01*
X009865Y012843D01*
X009911Y012890D01*
X009965Y012929D01*
X010024Y012958D01*
X010088Y012975D01*
X010154Y012982D01*
X010220Y012975D01*
X010283Y012957D01*
X010343Y012928D01*
X010397Y012890D01*
X010443Y012842D01*
X010480Y012787D01*
X010507Y012727D01*
X010523Y012663D01*
X009784Y012663D01*
X009780Y012615D02*
X010527Y012615D01*
X010528Y012597D02*
X010523Y012663D01*
X010511Y012712D02*
X009796Y012712D01*
X009815Y012760D02*
X010492Y012760D01*
X010466Y012809D02*
X009841Y012809D01*
X009879Y012857D02*
X010428Y012857D01*
X010375Y012906D02*
X009932Y012906D01*
X010017Y012954D02*
X010290Y012954D01*
X010525Y012566D02*
X009782Y012566D01*
X009790Y012518D02*
X010518Y012518D01*
X010503Y012469D02*
X009804Y012469D01*
X009828Y012421D02*
X010479Y012421D01*
X010446Y012372D02*
X009861Y012372D01*
X009907Y012324D02*
X010400Y012324D01*
X010328Y012275D02*
X009978Y012275D01*
X009396Y012456D02*
X009418Y012525D01*
X009426Y012597D01*
X009421Y012663D01*
X008682Y012663D01*
X008682Y012664D02*
X008698Y012728D01*
X008726Y012788D01*
X008763Y012843D01*
X008809Y012890D01*
X008863Y012929D01*
X008922Y012958D01*
X008986Y012975D01*
X009052Y012982D01*
X009118Y012975D01*
X009181Y012957D01*
X009241Y012928D01*
X009295Y012890D01*
X009341Y012842D01*
X009378Y012787D01*
X009405Y012727D01*
X009421Y012663D01*
X009425Y012615D02*
X008678Y012615D01*
X008677Y012598D02*
X008682Y012664D01*
X008694Y012712D02*
X009409Y012712D01*
X009390Y012760D02*
X008713Y012760D01*
X008739Y012809D02*
X009364Y012809D01*
X009326Y012857D02*
X008777Y012857D01*
X008830Y012906D02*
X009273Y012906D01*
X009188Y012954D02*
X008915Y012954D01*
X008677Y012598D02*
X008684Y012534D01*
X008701Y012471D01*
X008729Y012413D01*
X008767Y012361D01*
X008813Y012316D01*
X008867Y012279D01*
X008926Y012253D01*
X008988Y012237D01*
X009053Y012232D01*
X009125Y012238D01*
X009195Y012259D01*
X009259Y012292D01*
X009315Y012337D01*
X009362Y012393D01*
X009396Y012456D01*
X009401Y012469D02*
X008702Y012469D01*
X008688Y012518D02*
X009416Y012518D01*
X009423Y012566D02*
X008680Y012566D01*
X008726Y012421D02*
X009377Y012421D01*
X009344Y012372D02*
X008759Y012372D01*
X008805Y012324D02*
X009298Y012324D01*
X009226Y012275D02*
X008876Y012275D01*
X008988Y013737D02*
X008926Y013753D01*
X008867Y013779D01*
X008813Y013816D01*
X008767Y013861D01*
X008729Y013913D01*
X008701Y013971D01*
X008684Y014034D01*
X008677Y014098D01*
X008682Y014164D01*
X008698Y014228D01*
X008726Y014288D01*
X008763Y014343D01*
X008809Y014390D01*
X008863Y014429D01*
X008922Y014458D01*
X009180Y014458D01*
X009181Y014457D02*
X009241Y014428D01*
X009295Y014390D01*
X009341Y014342D01*
X009378Y014287D01*
X009405Y014227D01*
X009421Y014163D01*
X009426Y014097D01*
X009418Y014025D01*
X009396Y013956D01*
X009362Y013893D01*
X009315Y013837D01*
X009259Y013792D01*
X009195Y013759D01*
X009125Y013738D01*
X009053Y013732D01*
X008988Y013737D01*
X008868Y013779D02*
X009233Y013779D01*
X009303Y013827D02*
X008802Y013827D01*
X008756Y013876D02*
X009347Y013876D01*
X009379Y013924D02*
X008724Y013924D01*
X008701Y013973D02*
X009402Y013973D01*
X009417Y014021D02*
X008687Y014021D01*
X008680Y014070D02*
X009423Y014070D01*
X009424Y014118D02*
X008679Y014118D01*
X008683Y014167D02*
X009420Y014167D01*
X009408Y014215D02*
X008695Y014215D01*
X008714Y014264D02*
X009389Y014264D01*
X009361Y014312D02*
X008742Y014312D01*
X008780Y014361D02*
X009323Y014361D01*
X009268Y014409D02*
X008835Y014409D01*
X008922Y014458D02*
X008986Y014475D01*
X009052Y014482D01*
X009118Y014475D01*
X009181Y014457D01*
X009800Y014228D02*
X009828Y014288D01*
X009865Y014343D01*
X009911Y014390D01*
X009965Y014429D01*
X010024Y014458D01*
X010282Y014458D01*
X010283Y014457D02*
X010343Y014428D01*
X010397Y014390D01*
X010443Y014342D01*
X010480Y014287D01*
X010507Y014227D01*
X010523Y014163D01*
X010528Y014097D01*
X010520Y014025D01*
X010498Y013956D01*
X010464Y013893D01*
X010417Y013837D01*
X010361Y013792D01*
X010297Y013759D01*
X010227Y013738D01*
X010155Y013732D01*
X010091Y013737D01*
X010028Y013753D01*
X009969Y013779D01*
X009915Y013816D01*
X009869Y013861D01*
X009831Y013913D01*
X009803Y013971D01*
X009786Y014034D01*
X009779Y014098D01*
X009784Y014164D01*
X009800Y014228D01*
X009797Y014215D02*
X010510Y014215D01*
X010522Y014167D02*
X009785Y014167D01*
X009781Y014118D02*
X010526Y014118D01*
X010525Y014070D02*
X009782Y014070D01*
X009789Y014021D02*
X010519Y014021D01*
X010504Y013973D02*
X009803Y013973D01*
X009826Y013924D02*
X010481Y013924D01*
X010449Y013876D02*
X009858Y013876D01*
X009904Y013827D02*
X010405Y013827D01*
X010335Y013779D02*
X009970Y013779D01*
X009816Y014264D02*
X010491Y014264D01*
X010463Y014312D02*
X009844Y014312D01*
X009882Y014361D02*
X010425Y014361D01*
X010370Y014409D02*
X009937Y014409D01*
X010024Y014458D02*
X010088Y014475D01*
X010154Y014482D01*
X010220Y014475D01*
X010283Y014457D01*
X010227Y015238D02*
X010155Y015232D01*
X010091Y015237D01*
X010028Y015253D01*
X009969Y015279D01*
X009915Y015316D01*
X009869Y015361D01*
X009831Y015413D01*
X009803Y015471D01*
X009786Y015534D01*
X009779Y015598D01*
X009784Y015664D01*
X009800Y015728D01*
X009828Y015788D01*
X009865Y015843D01*
X009911Y015890D01*
X009965Y015929D01*
X010024Y015958D01*
X010088Y015975D01*
X010154Y015982D01*
X010220Y015975D01*
X010283Y015957D01*
X010343Y015928D01*
X010397Y015890D01*
X010443Y015842D01*
X010480Y015787D01*
X010507Y015727D01*
X010523Y015663D01*
X010528Y015597D01*
X010520Y015525D01*
X010498Y015456D01*
X010464Y015393D01*
X010417Y015337D01*
X010361Y015292D01*
X010297Y015259D01*
X010227Y015238D01*
X010173Y015234D02*
X010133Y015234D01*
X009965Y015282D02*
X010342Y015282D01*
X010409Y015331D02*
X009900Y015331D01*
X009856Y015379D02*
X010452Y015379D01*
X010483Y015428D02*
X009824Y015428D01*
X009802Y015476D02*
X010505Y015476D01*
X010520Y015525D02*
X009788Y015525D01*
X009782Y015573D02*
X010525Y015573D01*
X010526Y015622D02*
X009781Y015622D01*
X009786Y015670D02*
X010521Y015670D01*
X010509Y015719D02*
X009798Y015719D01*
X009818Y015767D02*
X010489Y015767D01*
X010461Y015816D02*
X009846Y015816D01*
X009885Y015864D02*
X010422Y015864D01*
X010365Y015913D02*
X009942Y015913D01*
X010037Y015961D02*
X010270Y015961D01*
X010213Y016737D02*
X010089Y016737D01*
X010091Y016737D02*
X010028Y016753D01*
X009969Y016779D01*
X009915Y016816D01*
X009869Y016861D01*
X009831Y016913D01*
X009803Y016971D01*
X009786Y017034D01*
X009779Y017098D01*
X009784Y017164D01*
X009800Y017228D01*
X009828Y017288D01*
X009865Y017343D01*
X009911Y017390D01*
X009965Y017429D01*
X010024Y017458D01*
X010088Y017475D01*
X010154Y017482D01*
X010220Y017475D01*
X010283Y017457D01*
X010343Y017428D01*
X010397Y017390D01*
X010443Y017342D01*
X010480Y017287D01*
X010507Y017227D01*
X010523Y017163D01*
X010528Y017097D01*
X010520Y017025D01*
X010498Y016956D01*
X010464Y016893D01*
X010417Y016837D01*
X010361Y016792D01*
X010297Y016759D01*
X010227Y016738D01*
X010155Y016732D01*
X010091Y016737D01*
X009959Y016786D02*
X010349Y016786D01*
X010413Y016834D02*
X009896Y016834D01*
X009853Y016883D02*
X010455Y016883D01*
X010485Y016931D02*
X009823Y016931D01*
X009801Y016980D02*
X010506Y016980D01*
X010521Y017028D02*
X009787Y017028D01*
X009781Y017077D02*
X010526Y017077D01*
X010526Y017125D02*
X009781Y017125D01*
X009786Y017174D02*
X010521Y017174D01*
X010508Y017222D02*
X009799Y017222D01*
X009820Y017271D02*
X010488Y017271D01*
X010458Y017319D02*
X009849Y017319D01*
X009889Y017368D02*
X010418Y017368D01*
X010360Y017416D02*
X009947Y017416D01*
X010049Y017465D02*
X010258Y017465D01*
X009405Y017227D02*
X009421Y017163D01*
X009426Y017097D01*
X009418Y017025D01*
X009396Y016956D01*
X009362Y016893D01*
X009315Y016837D01*
X009259Y016792D01*
X009195Y016759D01*
X009125Y016738D01*
X009053Y016732D01*
X008988Y016737D01*
X008926Y016753D01*
X008867Y016779D01*
X008813Y016816D01*
X008767Y016861D01*
X008729Y016913D01*
X008701Y016971D01*
X008684Y017034D01*
X008677Y017098D01*
X008682Y017164D01*
X008698Y017228D01*
X008726Y017288D01*
X008763Y017343D01*
X008809Y017390D01*
X008863Y017429D01*
X008922Y017458D01*
X008986Y017475D01*
X009052Y017482D01*
X009118Y017475D01*
X009181Y017457D01*
X009241Y017428D01*
X009295Y017390D01*
X009341Y017342D01*
X009378Y017287D01*
X009405Y017227D01*
X009406Y017222D02*
X008697Y017222D01*
X008684Y017174D02*
X009419Y017174D01*
X009424Y017125D02*
X008679Y017125D01*
X008679Y017077D02*
X009424Y017077D01*
X009418Y017028D02*
X008685Y017028D01*
X008699Y016980D02*
X009404Y016980D01*
X009383Y016931D02*
X008721Y016931D01*
X008751Y016883D02*
X009353Y016883D01*
X009311Y016834D02*
X008794Y016834D01*
X008857Y016786D02*
X009247Y016786D01*
X009111Y016737D02*
X008987Y016737D01*
X008718Y017271D02*
X009386Y017271D01*
X009356Y017319D02*
X008747Y017319D01*
X008787Y017368D02*
X009316Y017368D01*
X009258Y017416D02*
X008845Y017416D01*
X008947Y017465D02*
X009156Y017465D01*
X009052Y015982D02*
X009118Y015975D01*
X009181Y015957D01*
X009241Y015928D01*
X009295Y015890D01*
X009341Y015842D01*
X009378Y015787D01*
X009405Y015727D01*
X009421Y015663D01*
X009426Y015597D01*
X009418Y015525D01*
X009396Y015456D01*
X009362Y015393D01*
X009315Y015337D01*
X009259Y015292D01*
X009195Y015259D01*
X009125Y015238D01*
X009053Y015232D01*
X008988Y015237D01*
X008926Y015253D01*
X008867Y015279D01*
X008813Y015316D01*
X008767Y015361D01*
X008729Y015413D01*
X008701Y015471D01*
X008684Y015534D01*
X008677Y015598D01*
X008682Y015664D01*
X008698Y015728D01*
X008726Y015788D01*
X008763Y015843D01*
X008809Y015890D01*
X008863Y015929D01*
X008922Y015958D01*
X008986Y015975D01*
X009052Y015982D01*
X009168Y015961D02*
X008935Y015961D01*
X008840Y015913D02*
X009263Y015913D01*
X009320Y015864D02*
X008783Y015864D01*
X008744Y015816D02*
X009359Y015816D01*
X009387Y015767D02*
X008716Y015767D01*
X008696Y015719D02*
X009407Y015719D01*
X009419Y015670D02*
X008684Y015670D01*
X008679Y015622D02*
X009424Y015622D01*
X009423Y015573D02*
X008680Y015573D01*
X008686Y015525D02*
X009418Y015525D01*
X009403Y015476D02*
X008700Y015476D01*
X008722Y015428D02*
X009381Y015428D01*
X009350Y015379D02*
X008754Y015379D01*
X008798Y015331D02*
X009307Y015331D01*
X009240Y015282D02*
X008863Y015282D01*
X009031Y015234D02*
X009071Y015234D01*
D17*
X016999Y003877D03*
X017786Y003877D03*
X018574Y003877D03*
X019361Y003877D03*
X020148Y003877D03*
X019755Y002105D03*
X020542Y002105D03*
X018967Y002105D03*
X018180Y002105D03*
X017392Y002105D03*
X016605Y002105D03*
D18*
X029605Y012605D03*
D19*
X019205Y008805D03*
X018605Y008205D03*
X013505Y009905D03*
X015805Y022605D03*
X015105Y026905D03*
X026505Y026205D03*
D20*
X023205Y024305D03*
X022905Y020405D03*
X014505Y023405D03*
X014105Y022005D03*
X017305Y012005D03*
X021205Y010405D03*
X022905Y011405D03*
X016505Y007505D03*
X017905Y005005D03*
M02*
