G75*
%MOIN*%
%OFA0B0*%
%FSLAX24Y24*%
%IPPOS*%
%LPD*%
%AMOC8*
5,1,8,0,0,1.08239X$1,22.5*
%
%ADD10R,0.0740X0.0740*%
%ADD11C,0.0740*%
%ADD12C,0.0560*%
%ADD13C,0.0650*%
%ADD14R,0.0650X0.0650*%
%ADD15C,0.0800*%
%ADD16R,0.0555X0.0555*%
%ADD17R,0.0740X0.0740*%
%ADD18C,0.0240*%
%ADD19C,0.0600*%
%ADD20C,0.0320*%
%ADD21C,0.0500*%
%ADD22C,0.0200*%
D10*
G36*
X009610Y006240D02*
X009240Y005600D01*
X008600Y005970D01*
X008970Y006610D01*
X009610Y006240D01*
G37*
G36*
X025650Y005126D02*
X026126Y004560D01*
X025560Y004084D01*
X025084Y004650D01*
X025650Y005126D01*
G37*
D11*
X026371Y005248D03*
X027137Y005891D03*
X027903Y006533D03*
X025105Y007605D03*
X025105Y009105D03*
X022105Y009105D03*
X022105Y007605D03*
X023605Y012605D03*
X023605Y013605D03*
X023605Y014605D03*
X023605Y015605D03*
X023605Y016605D03*
X024605Y016605D03*
X023605Y017605D03*
X023605Y018605D03*
X023605Y019605D03*
X023605Y020605D03*
X023605Y021605D03*
X023605Y022605D03*
X023605Y023605D03*
X024605Y023605D03*
X025605Y023605D03*
X026605Y023605D03*
X027605Y023605D03*
X028605Y023605D03*
X029605Y023605D03*
X029605Y022605D03*
X029605Y021605D03*
X029605Y020605D03*
X029605Y019605D03*
X029605Y018605D03*
X029605Y017605D03*
X029605Y016605D03*
X029605Y015605D03*
X029605Y014605D03*
X029605Y013605D03*
X028605Y016605D03*
X011703Y004605D03*
X010837Y005105D03*
X009971Y005605D03*
X007105Y013105D03*
X007105Y016105D03*
D12*
X006397Y017818D02*
X005912Y018098D01*
X006412Y018964D02*
X006897Y018684D01*
X007397Y019550D02*
X006912Y019830D01*
X007412Y020696D02*
X007897Y020416D01*
X008397Y021282D02*
X007912Y021562D01*
X008412Y022428D02*
X008897Y022148D01*
X009397Y023014D02*
X008912Y023294D01*
X009412Y024160D02*
X009897Y023880D01*
X010397Y024746D02*
X009912Y025026D01*
X010412Y025892D02*
X010897Y025612D01*
X008298Y027112D02*
X007813Y027392D01*
X007313Y026526D02*
X007798Y026246D01*
X007298Y025380D02*
X006813Y025660D01*
X006313Y024794D02*
X006798Y024514D01*
X006298Y023648D02*
X005813Y023928D01*
X005313Y023062D02*
X005798Y022782D01*
X005298Y021916D02*
X004813Y022196D01*
X004313Y021330D02*
X004798Y021050D01*
X004298Y020184D02*
X003813Y020464D01*
X003313Y019598D02*
X003798Y019318D01*
X007325Y011105D02*
X007885Y011105D01*
X011325Y011105D02*
X011885Y011105D01*
X012605Y012075D02*
X012605Y012635D01*
X012605Y016075D02*
X012605Y016635D01*
D13*
X017605Y013105D03*
D14*
X018605Y013105D03*
D15*
X010155Y012605D03*
X009055Y012605D03*
X009055Y014105D03*
X010155Y014105D03*
X010155Y015605D03*
X009055Y015605D03*
X009055Y017105D03*
X010155Y017105D03*
D16*
X016999Y003877D03*
X017786Y003877D03*
X018574Y003877D03*
X019361Y003877D03*
X020148Y003877D03*
X019755Y002105D03*
X020542Y002105D03*
X018967Y002105D03*
X018180Y002105D03*
X017392Y002105D03*
X016605Y002105D03*
D17*
X029605Y012605D03*
D18*
X011105Y020605D02*
X009605Y019105D01*
X008252Y019781D01*
X008448Y019932D01*
X008592Y020180D01*
X008629Y020464D01*
X008555Y020741D01*
X008513Y020796D01*
X008564Y020809D01*
X008636Y020841D01*
X008702Y020884D01*
X008760Y020937D01*
X008810Y020998D01*
X008830Y021032D01*
X008849Y021066D01*
X008877Y021140D01*
X008894Y021217D01*
X008898Y021295D01*
X008890Y021373D01*
X008869Y021449D01*
X008837Y021521D01*
X008794Y021587D01*
X008742Y021646D01*
X008681Y021695D01*
X008754Y021667D01*
X008831Y021651D01*
X008910Y021647D01*
X008988Y021655D01*
X009064Y021675D01*
X009136Y021707D01*
X009202Y021750D01*
X009260Y021803D01*
X009310Y021864D01*
X009330Y021898D01*
X009349Y021932D01*
X009377Y022006D01*
X009394Y022083D01*
X009398Y022161D01*
X009390Y022239D01*
X009376Y022291D01*
X009445Y022282D01*
X009721Y022356D01*
X009948Y022530D01*
X010092Y022778D01*
X010129Y023062D01*
X010095Y023188D01*
X010221Y023222D01*
X010372Y023338D01*
X011105Y022605D01*
X011105Y020605D01*
X011105Y020685D02*
X008570Y020685D01*
X008627Y020447D02*
X010947Y020447D01*
X010708Y020208D02*
X008595Y020208D01*
X008470Y019970D02*
X010470Y019970D01*
X010231Y019731D02*
X008353Y019731D01*
X008830Y019493D02*
X009993Y019493D01*
X009754Y019254D02*
X009307Y019254D01*
X008746Y020924D02*
X011105Y020924D01*
X011105Y021162D02*
X008882Y021162D01*
X008830Y021032D02*
X008154Y021422D01*
X007479Y021812D01*
X008154Y021422D01*
X008154Y021422D01*
X008404Y021855D01*
X008127Y022015D01*
X008054Y022043D01*
X007977Y022059D01*
X007898Y022063D01*
X007820Y022055D01*
X007744Y022035D01*
X007672Y022003D01*
X007606Y021960D01*
X007548Y021907D01*
X007498Y021846D01*
X007479Y021812D01*
X007459Y021778D01*
X007431Y021704D01*
X007414Y021627D01*
X007410Y021549D01*
X007418Y021471D01*
X007425Y021445D01*
X005976Y022170D01*
X005957Y022241D01*
X005915Y022296D01*
X005966Y022309D01*
X006038Y022341D01*
X006104Y022384D01*
X006162Y022437D01*
X006212Y022498D01*
X006231Y022532D01*
X005556Y022922D01*
X005556Y022922D01*
X005806Y023355D01*
X006083Y023195D01*
X006156Y023167D01*
X006233Y023151D01*
X006312Y023147D01*
X006390Y023155D01*
X006466Y023175D01*
X006538Y023207D01*
X006604Y023250D01*
X006662Y023303D01*
X006712Y023364D01*
X006731Y023398D01*
X006056Y023788D01*
X006731Y023398D01*
X006751Y023432D01*
X006779Y023506D01*
X006796Y023583D01*
X006800Y023661D01*
X006792Y023739D01*
X006778Y023791D01*
X006846Y023782D01*
X006922Y023802D01*
X008227Y023068D01*
X008253Y022969D01*
X008295Y022914D01*
X008244Y022901D01*
X008172Y022869D01*
X008106Y022826D01*
X008048Y022773D01*
X007998Y022712D01*
X007979Y022678D01*
X008654Y022288D01*
X008654Y022288D01*
X008404Y021855D01*
X008127Y022015D01*
X008066Y022064D01*
X008014Y022123D01*
X007971Y022189D01*
X007939Y022261D01*
X007918Y022337D01*
X007910Y022415D01*
X007914Y022493D01*
X007931Y022570D01*
X007959Y022644D01*
X007979Y022678D01*
X008654Y022288D01*
X008654Y022288D01*
X008404Y021855D01*
X008154Y021422D01*
X008154Y021422D01*
X008154Y021422D01*
X008830Y021032D01*
X008604Y021162D02*
X008604Y021162D01*
X008882Y021401D02*
X011105Y021401D01*
X011105Y021639D02*
X008748Y021639D01*
X008681Y021695D02*
X008404Y021855D01*
X008681Y021695D01*
X008417Y021878D02*
X008417Y021878D01*
X008365Y021878D02*
X008365Y021878D01*
X008279Y021639D02*
X008279Y021639D01*
X008191Y021401D02*
X008191Y021401D01*
X007778Y021639D02*
X007778Y021639D01*
X007524Y021878D02*
X006560Y021878D01*
X007037Y021639D02*
X007417Y021639D01*
X008020Y022116D02*
X006083Y022116D01*
X006058Y022355D02*
X007917Y022355D01*
X007939Y022593D02*
X006261Y022593D01*
X006251Y022566D02*
X006279Y022640D01*
X006296Y022717D01*
X006300Y022795D01*
X006292Y022873D01*
X006271Y022949D01*
X006239Y023021D01*
X006196Y023087D01*
X006144Y023146D01*
X006083Y023195D01*
X005806Y023355D01*
X006056Y023788D01*
X006056Y023788D01*
X006056Y023788D01*
X005806Y023355D01*
X005529Y023515D01*
X005456Y023543D01*
X005379Y023559D01*
X005300Y023563D01*
X005222Y023555D01*
X005146Y023535D01*
X005074Y023503D01*
X005008Y023460D01*
X004950Y023407D01*
X004900Y023346D01*
X004880Y023312D01*
X004861Y023278D01*
X004833Y023204D01*
X004816Y023127D01*
X004812Y023049D01*
X004820Y022971D01*
X004834Y022919D01*
X004765Y022928D01*
X004565Y022875D01*
X003605Y023355D01*
X001605Y020105D01*
X000855Y020855D01*
X003833Y028300D01*
X003976Y028494D01*
X005605Y030355D01*
X007105Y029355D01*
X006629Y028545D01*
X006598Y028545D01*
X006399Y028463D01*
X006247Y028311D01*
X006165Y028112D01*
X006165Y027757D01*
X004605Y025105D01*
X005641Y024522D01*
X005655Y024469D01*
X005697Y024414D01*
X005646Y024401D01*
X005574Y024369D01*
X005508Y024326D01*
X005450Y024273D01*
X005400Y024212D01*
X005380Y024178D01*
X005361Y024144D01*
X005333Y024070D01*
X005316Y023993D01*
X005312Y023915D01*
X005320Y023837D01*
X005341Y023761D01*
X005373Y023689D01*
X005416Y023623D01*
X005468Y023564D01*
X005529Y023515D01*
X005806Y023355D01*
X005556Y022922D01*
X006231Y022532D01*
X006251Y022566D01*
X006126Y022593D02*
X006126Y022593D01*
X006296Y022832D02*
X008115Y022832D01*
X008126Y022593D02*
X008126Y022593D01*
X008539Y022355D02*
X008539Y022355D01*
X008654Y022288D02*
X009330Y021898D01*
X008654Y022288D01*
X008654Y022288D01*
X008555Y022116D02*
X008555Y022116D01*
X008952Y022116D02*
X008952Y022116D01*
X009318Y021878D02*
X011105Y021878D01*
X011105Y022116D02*
X009396Y022116D01*
X009717Y022355D02*
X011105Y022355D01*
X011105Y022593D02*
X009985Y022593D01*
X010099Y022832D02*
X010878Y022832D01*
X010640Y023070D02*
X010127Y023070D01*
X010334Y023309D02*
X010401Y023309D01*
X008223Y023070D02*
X006208Y023070D01*
X005886Y023309D02*
X005886Y023309D01*
X005779Y023309D02*
X005779Y023309D01*
X005917Y023547D02*
X005917Y023547D01*
X006055Y023786D02*
X006055Y023786D01*
X006056Y023788D02*
X005380Y024178D01*
X006056Y023788D01*
X006056Y023788D01*
X006060Y023786D02*
X006060Y023786D01*
X005647Y024024D02*
X005647Y024024D01*
X005441Y024263D02*
X002218Y024263D01*
X002313Y024501D02*
X005647Y024501D01*
X005255Y024740D02*
X002409Y024740D01*
X002504Y024978D02*
X004831Y024978D01*
X004671Y025217D02*
X002600Y025217D01*
X002695Y025455D02*
X004811Y025455D01*
X004951Y025694D02*
X002790Y025694D01*
X002886Y025932D02*
X005091Y025932D01*
X005232Y026171D02*
X002981Y026171D01*
X003077Y026409D02*
X005372Y026409D01*
X005512Y026648D02*
X003172Y026648D01*
X003267Y026886D02*
X005653Y026886D01*
X005793Y027125D02*
X003363Y027125D01*
X003458Y027363D02*
X005933Y027363D01*
X006074Y027602D02*
X003554Y027602D01*
X003649Y027840D02*
X006165Y027840D01*
X006165Y028079D02*
X003744Y028079D01*
X003846Y028317D02*
X006253Y028317D01*
X006635Y028556D02*
X004030Y028556D01*
X004239Y028794D02*
X006775Y028794D01*
X006915Y029033D02*
X004448Y029033D01*
X004657Y029271D02*
X007056Y029271D01*
X006873Y029510D02*
X004865Y029510D01*
X005074Y029748D02*
X006515Y029748D01*
X006158Y029987D02*
X005283Y029987D01*
X005491Y030225D02*
X005800Y030225D01*
X005323Y024024D02*
X002123Y024024D01*
X002027Y023786D02*
X005334Y023786D01*
X005436Y023547D02*
X005489Y023547D01*
X005192Y023547D02*
X001932Y023547D01*
X001836Y023309D02*
X003576Y023309D01*
X003698Y023309D02*
X004878Y023309D01*
X004880Y023312D02*
X005556Y022922D01*
X005556Y022922D01*
X005556Y022922D01*
X004880Y023312D01*
X004886Y023309D02*
X004886Y023309D01*
X004813Y023070D02*
X004175Y023070D01*
X003430Y023070D02*
X001741Y023070D01*
X001646Y022832D02*
X003283Y022832D01*
X003136Y022593D02*
X001550Y022593D01*
X001455Y022355D02*
X002989Y022355D01*
X002843Y022116D02*
X001359Y022116D01*
X001264Y021878D02*
X002696Y021878D01*
X002549Y021639D02*
X001169Y021639D01*
X001073Y021401D02*
X002402Y021401D01*
X002255Y021162D02*
X000978Y021162D01*
X000882Y020924D02*
X002109Y020924D01*
X001962Y020685D02*
X001025Y020685D01*
X001263Y020447D02*
X001815Y020447D01*
X001668Y020208D02*
X001502Y020208D01*
X005300Y023070D02*
X005300Y023070D01*
X005641Y023070D02*
X005641Y023070D01*
X005713Y022832D02*
X005713Y022832D01*
X006473Y023547D02*
X006473Y023547D01*
X006667Y023309D02*
X007799Y023309D01*
X007375Y023547D02*
X006788Y023547D01*
X006779Y023786D02*
X006816Y023786D01*
X006861Y023786D02*
X006951Y023786D01*
D19*
X015105Y026905D03*
X015805Y022605D03*
X026505Y026205D03*
X013505Y009905D03*
X018605Y008205D03*
X019205Y008805D03*
D20*
X018605Y008205D02*
X003705Y008205D01*
X003705Y019405D01*
X003556Y019458D01*
X006556Y024654D02*
X006705Y024805D01*
X007705Y024805D01*
X009505Y026605D01*
X010705Y026605D01*
X011105Y026205D01*
X026505Y026205D01*
X015805Y022605D02*
X011305Y022605D01*
X011305Y017205D01*
X010305Y017205D01*
X010155Y017105D01*
X009705Y014805D02*
X009105Y014205D01*
X009055Y014105D01*
X009505Y013405D02*
X010105Y014005D01*
X010155Y014105D01*
X010305Y014005D01*
X016705Y014005D01*
X017605Y013105D01*
X018605Y013105D02*
X016905Y014805D01*
X009705Y014805D01*
X009505Y013405D02*
X007305Y013405D01*
X007105Y013205D01*
X007105Y013105D01*
X013505Y009905D02*
X013505Y009805D01*
X014505Y008805D01*
X019205Y008805D01*
X022105Y007605D02*
X022905Y008405D01*
X025305Y008405D01*
X029505Y012605D01*
X029605Y012605D01*
X025605Y004605D02*
X025505Y004605D01*
X024105Y003205D01*
X018305Y003205D01*
X011305Y003205D01*
X009105Y005405D01*
X009105Y006105D01*
X018305Y003205D02*
X018305Y002205D01*
X018180Y002105D01*
X011305Y022605D02*
X011105Y022605D01*
X015105Y026905D02*
X015105Y027005D01*
X014905Y027205D01*
X008105Y027205D01*
X008056Y027252D01*
D21*
X014105Y022005D03*
X014505Y023405D03*
X022905Y020405D03*
X023205Y024305D03*
X017305Y012005D03*
X021205Y010405D03*
X022905Y011405D03*
X016505Y007505D03*
X017905Y005005D03*
D22*
X019905Y007005D01*
X025505Y007005D01*
X030305Y011805D01*
X030305Y014605D01*
X029605Y014605D01*
X029605Y013605D02*
X029505Y013605D01*
X027905Y012005D01*
X017305Y012005D01*
X016905Y015205D02*
X014105Y018005D01*
X014105Y022005D01*
X014705Y023205D02*
X022905Y023205D01*
X023505Y022605D01*
X023605Y022605D01*
X023605Y023605D02*
X023105Y023605D01*
X022705Y024005D01*
X009705Y024005D01*
X009654Y024020D01*
X010154Y024886D02*
X010305Y024805D01*
X010705Y024405D01*
X023105Y024405D01*
X023205Y024305D01*
X026305Y028005D02*
X028505Y025805D01*
X028505Y023605D01*
X028605Y023605D01*
X027605Y023605D02*
X027505Y023605D01*
X027505Y012605D01*
X023605Y012605D01*
X023605Y013605D02*
X023505Y013605D01*
X021905Y015205D01*
X016905Y015205D01*
X012605Y016355D02*
X012505Y016405D01*
X009705Y016405D01*
X009105Y017005D01*
X009055Y017105D01*
X009105Y017205D01*
X007305Y019005D01*
X007305Y019605D01*
X007154Y019690D01*
X006654Y018824D02*
X006505Y018805D01*
X005705Y018805D01*
X005305Y018405D01*
X005305Y012405D01*
X008705Y012405D01*
X008905Y012605D01*
X009055Y012605D01*
X012305Y011605D02*
X012505Y011405D01*
X022905Y011405D01*
X021905Y009805D02*
X024505Y009805D01*
X025105Y009205D01*
X025105Y009105D01*
X022105Y009105D02*
X022105Y009005D01*
X020705Y007605D01*
X016505Y007605D01*
X016505Y007505D01*
X016505Y007405D01*
X011905Y007405D01*
X010105Y005605D01*
X009971Y005605D01*
X011703Y004605D02*
X011705Y004605D01*
X011905Y004405D01*
X023505Y004405D01*
X030705Y011605D01*
X030705Y021605D01*
X029605Y021605D01*
X022905Y020405D02*
X022905Y015205D01*
X023505Y014605D01*
X023605Y014605D01*
X021305Y010405D02*
X021205Y010405D01*
X021305Y010405D02*
X021905Y009805D01*
X012305Y011605D02*
X004905Y011605D01*
X004905Y019005D01*
X004105Y019805D01*
X004105Y020205D01*
X004056Y020324D01*
X006154Y017958D02*
X006305Y017805D01*
X008505Y015605D01*
X009055Y015605D01*
X014705Y023205D02*
X014505Y023405D01*
X007056Y025520D02*
X006905Y025605D01*
X006905Y026205D01*
X006705Y026405D01*
X006705Y028005D01*
X026305Y028005D01*
M02*
